<?xml version="1.0" encoding="UTF-8" standalone="no"?>
<!DOCTYPE svg PUBLIC "-//W3C//DTD SVG 1.1//EN" "http://www.w3.org/Graphics/SVG/1.1/DTD/svg11.dtd">
<svg xmlns="http://www.w3.org/2000/svg" version="1.1" viewBox="0 0 500 500">
<g stroke-width="2.00" fill="none" stroke-linecap="butt">
<path stroke="#d3d3d3" vector-effect="non-scaling-stroke" d="
  M 217.25 124.79
  L 216.48 137.00"
/>
<path stroke="#d3d3d3" vector-effect="non-scaling-stroke" d="
  M 223.75 125.04
  L 224.19 137.50"
/>
<path stroke="#d3d3d3" vector-effect="non-scaling-stroke" d="
  M 229.00 125.29
  L 228.76 136.50
  A 1.12 0.80 78.9 0 1 228.38 137.34
  Q 227.81 137.73 227.00 137.54"
/>
<path stroke="#d3d3d3" vector-effect="non-scaling-stroke" d="
  M 237.00 125.79
  Q 236.00 131.83 236.00 137.96"
/>
<path stroke="#d3d3d3" vector-effect="non-scaling-stroke" d="
  M 241.03 125.73
  Q 241.70 132.00 241.00 138.21"
/>
<path stroke="#d3d3d3" vector-effect="non-scaling-stroke" d="
  M 249.25 126.29
  L 248.25 138.71"
/>
<path stroke="#d3d3d3" vector-effect="non-scaling-stroke" d="
  M 254.55 128.09
  Q 253.25 133.55 253.57 138.22"
/>
<path stroke="#d3d3d3" vector-effect="non-scaling-stroke" d="
  M 247.54 372.75
  Q 246.87 368.17 247.48 363.02"
/>
<path stroke="#d3d3d3" vector-effect="non-scaling-stroke" d="
  M 241.75 362.29
  Q 242.78 369.10 242.00 375.96"
/>
<path stroke="#d3d3d3" vector-effect="non-scaling-stroke" d="
  M 233.25 362.04
  L 233.50 375.96"
/>
<path stroke="#d3d3d3" vector-effect="non-scaling-stroke" d="
  M 228.25 375.96
  Q 228.76 369.01 228.25 362.04"
/>
<path stroke="#d3d3d3" vector-effect="non-scaling-stroke" d="
  M 222.25 362.29
  L 222.19 376.03"
/>
<path stroke="#d3d3d3" vector-effect="non-scaling-stroke" d="
  M 216.71 362.25
  Q 217.56 369.21 217.29 376.20"
/>
<path stroke="#d3d3d3" vector-effect="non-scaling-stroke" d="
  M 210.50 362.29
  Q 209.77 369.12 210.50 375.96"
/>
<path stroke="#a7a6a7" vector-effect="non-scaling-stroke" d="
  M 309.21 208.75
  L 301.48 205.84"
/>
<path stroke="#a7a6a7" vector-effect="non-scaling-stroke" d="
  M 266.75 205.71
  Q 262.67 206.97 259.46 209.75"
/>
<path stroke="#d9d9d9" vector-effect="non-scaling-stroke" d="
  M 269.60 211.15
  L 263.91 217.84"
/>
</g>
<path fill="#ffffff" d="
  M 217.25 124.79
  L 216.48 137.00
  L 212.44 136.89
  A 0.64 0.57 88.2 0 1 211.89 136.31
  Q 211.41 130.73 212.12 125.18
  A 0.66 0.52 -84.4 0 1 212.68 124.60
  L 217.25 124.79
  Z"
/>
<path fill="#a7a7a7" d="
  M 217.25 124.79
  L 223.75 125.04
  L 224.19 137.50
  L 216.48 137.00
  L 217.25 124.79
  Z"
/>
<path fill="#ffffff" d="
  M 223.75 125.04
  L 229.00 125.29
  L 228.76 136.50
  A 1.12 0.80 78.9 0 1 228.38 137.34
  Q 227.81 137.73 227.00 137.54
  L 224.19 137.50
  L 223.75 125.04
  Z"
/>
<path fill="#a7a7a7" d="
  M 229.00 125.29
  L 237.00 125.79
  Q 236.00 131.83 236.00 137.96
  L 227.00 137.54
  Q 227.81 137.73 228.38 137.34
  A 1.12 0.80 78.9 0 0 228.76 136.50
  L 229.00 125.29
  Z"
/>
<path fill="#ffffff" d="
  M 237.00 125.79
  L 241.03 125.73
  Q 241.70 132.00 241.00 138.21
  L 236.00 137.96
  Q 236.00 131.83 237.00 125.79
  Z"
/>
<path fill="#a7a7a7" d="
  M 241.03 125.73
  L 249.25 126.29
  L 248.25 138.71
  L 241.00 138.21
  Q 241.70 132.00 241.03 125.73
  Z"
/>
<path fill="#ffffff" d="
  M 249.25 126.29
  Q 252.88 125.53 254.55 128.09
  Q 253.25 133.55 253.57 138.22
  Q 250.91 139.78 248.25 138.71
  L 249.25 126.29
  Z"
/>
<path fill="#a7a7a7" d="
  M 254.55 128.09
  Q 272.45 130.44 286.19 136.06
  C 365.55 168.51 389.38 270.52 330.06 333.81
  Q 296.67 369.43 247.54 372.75
  Q 246.87 368.17 247.48 363.02
  Q 294.78 358.79 324.99 324.55
  C 358.35 286.75 362.61 230.64 334.38 188.56
  Q 305.45 145.43 253.57 138.22
  Q 253.25 133.55 254.55 128.09
  Z"
/>
<path fill="#ffffff" d="
  M 241.06 149.07
  C 297.52 149.78 343.15 196.60 341.05 253.54
  C 339.15 304.91 298.97 346.63 247.74 350.36
  C 200.17 353.82 158.12 324.57 143.75 279.50
  Q 139.33 265.63 139.74 250.50
  A 0.60 0.59 86.6 0 1 140.25 249.92
  Q 143.60 249.41 146.95 249.97
  A 0.61 0.61 -85.4 0 1 147.45 250.56
  C 148.80 303.24 190.66 343.74 243.50 342.50
  Q 259.39 342.13 274.69 335.95
  C 337.31 310.66 353.17 228.87 303.24 182.27
  Q 277.14 157.90 241.18 157.32
  A 0.55 0.52 0.0 0 1 240.64 156.81
  L 240.53 149.56
  A 0.52 0.48 0.0 0 1 241.06 149.07
  Z"
/>
<path fill="#747374" d="
  M 309.21 208.75
  L 301.48 205.84
  C 305.04 196.65 299.36 189.34 290.00 189.25
  C 284.11 189.20 276.34 188.27 271.58 191.01
  Q 263.90 195.43 266.75 205.71
  Q 262.67 206.97 259.46 209.75
  C 254.82 199.70 258.40 187.76 268.39 182.87
  C 274.66 179.80 282.91 181.07 290.75 181.25
  Q 295.71 181.37 297.88 182.21
  C 308.57 186.37 314.30 198.00 309.21 208.75
  Z"
/>
<path fill="#d9d9d9" d="
  M 266.75 205.71
  L 269.60 211.15
  L 263.91 217.84
  L 259.46 209.75
  Q 262.67 206.97 266.75 205.71
  Z"
/>
<path fill="#d9d9d9" d="
  M 309.21 208.75
  L 304.74 218.05
  A 1.28 1.07 -45.8 0 0 304.67 218.97
  Q 310.54 235.29 297.21 246.15
  A 3.82 3.81 -64.5 0 1 294.81 247.00
  L 273.65 247.00
  A 3.80 3.77 64.5 0 1 271.25 246.14
  Q 257.70 234.95 263.91 217.84
  L 269.60 211.15
  Q 283.76 201.23 298.20 210.82
  A 0.80 0.70 -60.7 0 0 299.27 210.44
  L 301.48 205.84
  L 309.21 208.75
  Z
  M 297.15 227.44
  A 13.09 13.09 0.0 0 0 284.06 214.35
  A 13.09 13.09 0.0 0 0 270.97 227.44
  A 13.09 13.09 0.0 0 0 284.06 240.53
  A 13.09 13.09 0.0 0 0 297.15 227.44
  Z"
/>
<path fill="#9d9c9d" d="
  M 148.44 222.81
  Q 147.49 221.33 147.50 223.25
  L 147.57 245.44
  A 0.56 0.54 -89.5 0 1 147.02 246.00
  L 140.00 245.92
  A 0.80 0.77 90.0 0 1 139.24 245.13
  L 138.98 209.43
  A 1.64 1.56 89.8 0 1 140.54 207.78
  L 146.71 207.76
  A 1.68 1.66 -15.9 0 1 148.13 208.54
  L 162.41 230.93
  Q 162.99 231.84 163.00 230.77
  L 163.26 208.62
  A 0.88 0.88 -89.7 0 1 164.14 207.75
  L 171.09 207.75
  A 0.66 0.66 0.0 0 1 171.75 208.41
  L 171.75 245.12
  A 0.88 0.88 0.0 0 1 170.87 246.00
  L 164.03 246.00
  A 1.51 1.49 -16.2 0 1 162.77 245.32
  L 148.44 222.81
  Z"
/>
<path fill="#9d9c9d" d="
  M 185.97 245.83
  C 183.86 246.33 180.47 246.06 177.90 245.91
  A 0.65 0.64 -76.9 0 1 177.35 245.02
  L 192.25 208.40
  A 0.82 0.71 -77.2 0 1 192.94 207.89
  L 199.68 207.80
  A 1.14 1.03 77.6 0 1 200.66 208.50
  L 215.68 245.34
  A 0.40 0.39 77.8 0 1 215.33 245.90
  L 207.32 245.96
  A 0.80 0.73 -9.5 0 1 206.59 245.49
  L 204.19 239.31
  A 1.68 1.46 77.7 0 0 202.77 238.25
  L 189.80 238.25
  A 1.00 0.98 9.4 0 0 188.86 238.91
  L 186.60 245.22
  A 0.99 0.84 -84.4 0 1 185.97 245.83
  Z
  M 192.30 230.17
  A 0.44 0.44 -79.9 0 0 192.71 230.77
  L 200.18 230.74
  A 0.44 0.44 -10.7 0 0 200.59 230.14
  L 196.82 220.25
  A 0.44 0.44 -44.6 0 0 196.00 220.26
  L 192.30 230.17
  Z"
/>
<path fill="#9d9c9d" d="
  M 230.07 222.81
  L 229.71 245.18
  A 0.57 0.53 -90.0 0 1 229.19 245.74
  L 222.26 245.86
  A 1.14 1.04 -89.4 0 1 221.21 244.69
  Q 221.78 226.75 221.21 208.75
  A 0.91 0.86 89.3 0 1 222.08 207.81
  L 229.31 207.89
  A 1.04 0.92 71.8 0 1 230.10 208.35
  L 244.23 230.21
  Q 245.29 231.85 245.31 229.92
  L 245.56 208.31
  A 0.52 0.49 -89.4 0 1 246.05 207.80
  L 253.00 207.76
  A 0.98 0.98 0.0 0 1 253.99 208.75
  L 253.76 245.01
  A 0.55 0.54 88.3 0 1 253.25 245.56
  L 246.54 246.01
  A 2.18 1.96 70.2 0 1 244.70 245.02
  L 230.34 222.73
  Q 230.07 222.32 230.07 222.81
  Z"
/>
<path fill="#8a9588" fill-opacity="0.992" d="
  M 182.70 264.43
  L 182.76 256.00
  A 0.71 0.50 87.4 0 1 183.20 255.32
  C 184.38 255.15 183.99 267.14 183.94 268.38
  Q 183.89 269.53 183.24 268.59
  L 177.31 259.93
  Q 176.28 258.43 176.24 260.23
  C 176.21 261.64 176.82 267.13 176.29 268.21
  Q 175.27 270.29 175.17 267.06
  Q 174.98 261.41 175.25 255.73
  Q 175.32 254.35 175.95 255.58
  Q 178.48 260.55 182.34 264.58
  Q 182.70 264.95 182.70 264.43
  Z"
/>
<path fill="#8a9588" fill-opacity="0.992" d="
  M 227.04 264.26
  Q 228.06 265.74 228.01 263.92
  L 227.83 256.80
  A 1.37 1.12 68.5 0 1 228.11 255.92
  Q 229.27 254.55 229.26 257.00
  Q 229.25 262.62 229.25 268.27
  Q 229.25 269.49 228.56 268.51
  L 223.04 260.72
  Q 221.64 258.75 221.53 261.12
  C 221.48 262.26 222.26 269.51 220.76 268.92
  A 0.83 0.72 -81.1 0 1 220.30 268.19
  L 220.25 256.23
  Q 220.24 254.36 221.32 255.93
  L 227.04 264.26
  Z"
/>
<path fill="#8a9588" fill-opacity="0.992" d="
  M 240.19 265.47
  L 234.93 265.37
  A 0.95 0.74 -71.5 0 0 234.19 265.86
  C 234.05 266.14 232.73 270.22 231.96 268.78
  A 1.26 0.74 -57.1 0 1 232.00 267.85
  L 237.00 255.78
  Q 237.45 254.69 237.90 255.78
  Q 240.42 261.96 242.74 267.75
  Q 243.26 269.05 242.28 268.84
  A 0.99 0.80 83.6 0 1 241.65 268.22
  L 240.86 266.04
  A 0.86 0.67 78.3 0 0 240.19 265.47
  Z
  M 235.13 263.67
  A 0.45 0.45 -80.6 0 0 235.56 264.27
  L 239.36 264.23
  A 0.45 0.45 -10.2 0 0 239.78 263.63
  L 237.83 258.37
  A 0.45 0.45 45.1 0 0 236.99 258.38
  L 235.13 263.67
  Z"
/>
<path fill="#8a9588" fill-opacity="0.992" d="
  M 256.66 260.88
  Q 256.24 258.87 255.49 260.80
  L 252.48 268.50
  Q 252.06 269.59 251.66 268.50
  L 248.94 261.06
  Q 247.82 258.01 247.31 261.31
  Q 246.81 264.59 246.09 267.83
  C 245.86 268.89 244.48 269.97 244.99 267.45
  Q 246.16 261.56 247.35 256.10
  Q 247.65 254.69 248.18 256.05
  L 251.77 265.34
  Q 252.17 266.38 252.56 265.33
  L 255.85 256.22
  Q 256.56 254.24 256.93 256.29
  Q 257.95 261.96 259.38 267.52
  C 259.90 269.55 258.26 269.27 257.98 267.73
  Q 257.28 263.82 256.66 260.88
  Z"
/>
<rect fill="#8a9588" fill-opacity="0.992" x="-0.59" y="-6.82" transform="translate(262.84,262.12) rotate(-0.6)" width="1.18" height="13.64" rx="0.56"/>
<path fill="#8a9588" fill-opacity="0.992" d="
  M 286.47 263.67
  Q 286.55 260.72 286.70 256.76
  C 286.83 253.50 287.75 256.36 287.75 256.85
  Q 287.75 262.68 287.75 268.51
  Q 287.75 269.85 286.99 268.74
  L 281.20 260.28
  Q 279.93 258.42 280.00 260.74
  L 280.22 267.94
  A 0.89 0.71 80.4 0 1 279.78 268.73
  Q 279.50 268.85 279.22 268.73
  A 0.92 0.65 -83.0 0 1 278.80 267.95
  L 278.75 256.15
  Q 278.75 254.83 279.50 255.90
  L 285.26 264.01
  Q 286.41 265.64 286.47 263.67
  Z"
/>
<path fill="#8a9588" fill-opacity="0.992" d="
  M 318.56 267.19
  Q 319.25 269.27 323.25 267.75
  Q 325.30 266.97 324.93 264.92
  A 1.15 1.01 11.7 0 0 324.38 264.19
  C 322.10 262.87 319.09 262.59 317.50 260.70
  C 313.12 255.47 325.55 253.45 325.45 257.86
  Q 325.43 258.69 324.61 257.89
  C 323.09 256.42 319.28 255.34 318.29 258.02
  C 316.67 262.44 330.24 261.09 325.43 267.32
  C 323.60 269.68 317.63 270.29 316.65 266.55
  A 0.49 0.47 79.5 0 1 317.05 265.94
  Q 318.11 265.82 318.56 267.19
  Z"
/>
<path fill="#747374" d="
  M 165.75 261.67
  C 166.09 261.62 172.28 260.67 170.60 262.64
  A 1.06 0.95 19.6 0 1 169.76 262.98
  L 165.57 262.74
  A 0.65 0.63 9.5 0 0 164.91 263.19
  Q 164.29 265.34 164.58 267.07
  A 0.68 0.66 -2.2 0 0 165.18 267.61
  C 166.52 267.75 169.78 267.43 170.78 267.86
  C 173.49 269.03 164.17 268.75 164.12 268.75
  A 0.87 0.87 0.0 0 1 163.25 267.88
  L 163.25 256.75
  A 1.25 1.25 0.0 0 1 164.50 255.50
  C 165.72 255.50 172.67 254.70 170.94 256.69
  Q 170.28 257.44 167.25 256.75
  Q 164.16 256.05 164.65 259.00
  Q 164.72 259.44 164.55 259.95
  Q 164.26 260.82 164.86 261.44
  A 1.19 0.78 -18.7 0 0 165.75 261.67
  Z"
/>
<path fill="#8a9588" fill-opacity="0.992" d="
  M 190.84 257.70
  C 190.92 258.90 191.60 268.98 190.30 268.81
  A 0.63 0.58 -86.9 0 1 189.79 268.19
  L 189.68 257.33
  A 0.99 0.96 85.7 0 0 188.58 256.35
  Q 186.50 256.64 186.42 256.03
  A 0.63 0.43 -2.8 0 1 187.06 255.55
  L 193.51 255.49
  A 0.93 0.68 -8.8 0 1 194.30 255.90
  Q 194.72 256.81 191.80 256.71
  A 0.93 0.93 89.2 0 0 190.84 257.70
  Z"
/>
<path fill="#8a9588" fill-opacity="0.992" d="
  M 203.37 265.87
  Q 204.65 266.92 205.08 268.46
  Q 205.23 268.99 204.71 268.79
  C 202.54 267.99 197.48 257.68 198.39 267.95
  A 0.88 0.75 73.3 0 1 198.04 268.74
  Q 197.03 269.37 197.09 267.68
  Q 197.29 262.22 197.00 256.71
  A 1.00 0.99 84.3 0 1 197.85 255.67
  Q 200.29 255.31 202.11 255.68
  C 205.26 256.32 206.70 259.45 204.52 262.07
  C 203.50 263.30 200.44 263.48 203.37 265.87
  Z
  M 203.76 258.07
  C 202.57 256.55 200.77 256.55 198.94 256.79
  A 0.69 0.69 -89.4 0 0 198.35 257.37
  C 196.84 267.10 206.40 261.40 203.76 258.07
  Z"
/>
<path fill="#8a9588" fill-opacity="0.992" d="
  M 210.00 263.55
  L 209.90 267.06
  A 0.56 0.53 2.1 0 0 210.44 267.61
  L 215.76 267.77
  A 0.89 0.60 -5.4 0 1 216.51 268.18
  C 216.88 269.12 210.10 268.75 209.02 268.75
  A 0.52 0.52 -0.0 0 1 208.50 268.23
  L 208.50 256.00
  A 0.50 0.50 0.0 0 1 209.00 255.50
  C 209.34 255.50 217.92 254.98 216.56 256.38
  A 1.29 1.03 17.7 0 1 215.70 256.71
  L 211.07 256.74
  A 0.91 0.81 1.0 0 0 210.16 257.52
  L 210.00 260.94
  A 0.59 0.49 2.1 0 0 210.57 261.45
  C 210.83 261.46 217.56 261.14 216.38 262.43
  A 1.40 0.83 9.7 0 1 215.49 262.77
  L 210.56 263.03
  A 0.59 0.53 -1.2 0 0 210.00 263.55
  Z"
/>
<path fill="#8a9588" fill-opacity="0.992" d="
  M 269.07 267.71
  C 269.32 267.72 276.43 267.32 274.59 268.63
  C 273.87 269.15 268.83 268.67 267.75 268.55
  A 0.57 0.55 -87.7 0 1 267.26 268.00
  L 267.06 256.30
  A 0.79 0.76 89.6 0 1 267.82 255.50
  C 268.33 255.50 277.22 254.72 274.50 256.75
  Q 273.11 257.78 270.00 256.75
  Q 267.84 256.03 268.57 260.45
  A 1.51 1.30 -4.0 0 0 270.03 261.54
  L 273.94 261.52
  A 0.87 0.78 -10.9 0 1 274.71 261.98
  C 275.36 263.42 270.23 262.75 269.26 262.81
  A 1.08 1.02 -3.8 0 0 268.25 263.90
  L 268.48 267.20
  A 0.62 0.55 -0.9 0 0 269.07 267.71
  Z"
/>
<path fill="#8a9588" fill-opacity="0.992" d="
  M 293.44 257.27
  A 0.99 0.98 82.8 0 0 292.22 256.32
  Q 290.66 256.71 290.37 256.06
  A 0.44 0.36 -9.6 0 1 290.81 255.55
  L 297.26 255.49
  A 0.94 0.59 -6.4 0 1 298.07 255.88
  Q 298.34 256.53 295.86 256.47
  A 1.09 1.08 0.5 0 0 294.75 257.55
  C 294.75 259.45 295.04 268.25 294.54 268.83
  C 293.03 270.61 293.45 257.65 293.44 257.27
  Z"
/>
<path fill="#8a9588" fill-opacity="0.992" d="
  M 313.95 262.18
  A 6.81 6.81 0.0 0 1 307.14 268.99
  A 6.81 6.81 0.0 0 1 300.33 262.18
  A 6.81 6.81 0.0 0 1 307.14 255.37
  A 6.81 6.81 0.0 0 1 313.95 262.18
  Z
  M 312.65 262.23
  A 5.55 5.55 0.0 0 0 307.10 256.68
  A 5.55 5.55 0.0 0 0 301.55 262.23
  A 5.55 5.55 0.0 0 0 307.10 267.78
  A 5.55 5.55 0.0 0 0 312.65 262.23
  Z"
/>
<path fill="#ffffff" d="
  M 210.50 362.29
  Q 209.77 369.12 210.50 375.96
  L 206.01 376.21
  A 0.81 0.71 87.9 0 1 205.26 375.41
  L 204.98 362.89
  A 0.91 0.90 84.5 0 1 205.73 361.97
  Q 208.88 361.43 210.50 362.29
  Z"
/>
<path fill="#ffffff" d="
  M 233.25 362.04
  L 233.50 375.96
  Q 230.88 376.65 228.25 375.96
  Q 228.76 369.01 228.25 362.04
  Q 230.76 361.45 233.25 362.04
  Z"
/>
<path fill="#a7a7a7" d="
  M 216.71 362.25
  Q 217.56 369.21 217.29 376.20
  L 210.50 375.96
  Q 209.77 369.12 210.50 362.29
  L 216.71 362.25
  Z"
/>
<path fill="#ffffff" d="
  M 222.25 362.29
  L 222.19 376.03
  L 217.29 376.20
  Q 217.56 369.21 216.71 362.25
  Q 219.49 361.59 222.25 362.29
  Z"
/>
<path fill="#a7a7a7" d="
  M 228.25 362.04
  Q 228.76 369.01 228.25 375.96
  L 222.19 376.03
  L 222.25 362.29
  L 228.25 362.04
  Z"
/>
<path fill="#a7a7a7" d="
  M 233.25 362.04
  L 241.75 362.29
  Q 242.78 369.10 242.00 375.96
  L 233.50 375.96
  L 233.25 362.04
  Z"
/>
<path fill="#ffffff" d="
  M 247.48 363.02
  Q 246.87 368.17 247.54 372.75
  Q 247.04 374.07 247.18 375.06
  A 0.91 0.91 82.3 0 1 246.39 376.10
  Q 243.58 376.46 242.00 375.96
  Q 242.78 369.10 241.75 362.29
  C 242.98 361.90 246.65 361.40 247.48 363.02
  Z"
/>
</svg>
